<?xml version="1.0" encoding="iso-8859-1"?>
<!-- Generator: Adobe Illustrator 19.1.0, SVG Export Plug-In . SVG Version: 6.00 Build 0)  -->
<svg version="1.1" id="Layer_1" xmlns="http://www.w3.org/2000/svg" xmlns:xlink="http://www.w3.org/1999/xlink" x="0px" y="0px"
	 viewBox="0 0 144 39.767" style="enable-background:new 0 0 144 39.767;" xml:space="preserve">
<g>
	<g>
		<rect x="103.967" y="9.087" style="fill:#FFFFFF;" width="2.764" height="19.358"/>
		<path style="fill:#FFFFFF;" d="M72.608,16.149c0.768-0.886,1.896-1.528,3.127-1.528c1.597,0,2.779,0.753,3.615,2.006
			c0.863-1.225,2.32-2.006,3.85-2.006c3.521,0,4.39,2.795,4.39,5.65v8.173h-2.77v-7.771c0-1.667-0.369-3.42-2.211-3.42
			c-2.291,0-2.51,2.347-2.51,4.357v6.835h-2.9v-7.318c0-1.432-0.007-3.874-2.059-3.874c-2.289,0-2.727,2.324-2.727,4.357v6.835
			h-2.705v-13.45h2.898V16.149z"/>
		<polygon style="fill:#FFFFFF;" points="51.954,9.081 54.686,9.069 54.686,28.422 51.954,28.422 		"/>
		<path style="fill-rule:evenodd;clip-rule:evenodd;fill:#FFFFFF;" d="M44.476,17.197c-1.643,0-2.891,1.102-3.26,2.64h6.415
			C47.283,18.227,46.167,17.197,44.476,17.197z M50.582,21.532v0.622h-9.544c0.129,1.947,1.477,3.649,3.519,3.649
			c1.899,0,2.755-1.023,3.66-2.518l2.45,1.382c-1.277,2.358-3.42,3.772-6.135,3.772c-3.993,0-6.401-3.029-6.401-6.83
			c0-3.949,2.132-6.988,6.346-6.988C48.647,14.621,50.582,17.726,50.582,21.532z"/>
		<path style="fill-rule:evenodd;clip-rule:evenodd;fill:#FFFFFF;" d="M62.315,17.225c-1.615,0-2.848,1.1-3.214,2.64h6.328
			C65.08,18.255,63.981,17.225,62.315,17.225z M68.336,21.554v0.621h-9.413c0.13,1.939,1.458,3.651,3.476,3.651
			c1.867,0,2.712-1.031,3.607-2.52l2.41,1.387c-1.258,2.345-3.368,3.759-6.049,3.759c-3.93,0-6.308-3.024-6.308-6.82
			c0-3.94,2.104-6.978,6.255-6.978C66.426,14.654,68.336,17.755,68.336,21.554z"/>
		<path style="fill-rule:evenodd;clip-rule:evenodd;fill:#FFFFFF;" d="M92.152,21.503c0,2.271,1.356,4.3,3.712,4.3
			c2.445,0,3.823-1.932,3.823-4.3c0-2.345-1.399-4.25-3.823-4.25C93.556,17.253,92.152,19.262,92.152,21.503z M92.283,16.653
			c1.018-1.247,2.44-2.032,4.17-2.032c3.788,0,6.133,3.278,6.133,6.802c0,3.672-2.203,7.016-6.238,7.016
			c-1.635,0-3.061-0.787-4.064-1.969v7.806h-2.9V14.995h2.9V16.653z"/>
		<path style="fill-rule:evenodd;clip-rule:evenodd;fill:#FFFFFF;" d="M114.446,17.197c-1.638,0-2.891,1.102-3.259,2.64h6.419
			C117.252,18.227,116.134,17.197,114.446,17.197z M120.551,21.532v0.622h-9.544c0.132,1.947,1.476,3.649,3.519,3.649
			c1.903,0,2.752-1.023,3.659-2.518l2.454,1.382c-1.278,2.358-3.422,3.772-6.139,3.772c-3.987,0-6.402-3.029-6.402-6.83
			c0-3.949,2.137-6.988,6.348-6.988C118.617,14.621,120.551,17.726,120.551,21.532z"/>
		<g>
			<g>
				<path style="fill-rule:evenodd;clip-rule:evenodd;fill:#FFFFFF;" d="M128.838,14.654c-3.871,0-6.918,2.994-6.918,6.9
					c0,3.901,3.047,6.899,6.918,6.899c3.873,0,6.929-2.997,6.929-6.899C135.767,17.648,132.711,14.654,128.838,14.654z
					 M128.838,25.66c-2.232,0-4.031-1.89-4.031-4.107c0-2.251,1.799-4.114,4.031-4.114c2.241,0,4.033,1.863,4.033,4.114
					C132.872,23.771,131.077,25.66,128.838,25.66z"/>
			</g>
		</g>
	</g>
	<g>
		<path style="fill-rule:evenodd;clip-rule:evenodd;fill:#FFFFFF;" d="M29.321,15.678v-0.38c0-0.677-0.055-1.334-0.158-1.964
			l3.784,0c1.438,0,2.602,1.165,2.602,2.602v11.186c0,1.435-1.164,2.602-2.602,2.602H10.834c-1.438,0-2.601-1.167-2.601-2.602
			V15.936c0-1.437,1.162-2.603,2.601-2.603h3.821c-0.117,0.657-0.175,1.344-0.175,2.058c0,4.508,2.877,8.096,7.626,8.096
			c3.24,0,5.792-1.676,7.315-4.466L26.5,17.377c-1.077,1.771-2.098,2.988-4.359,2.988c-2.424,0-4.027-2.006-4.192-4.299
			l-0.023-0.389C19.296,15.678,29.321,15.678,29.321,15.678z"/>
		<path style="fill-rule:evenodd;clip-rule:evenodd;fill:#FFFFFF;" d="M14.657,13.333c0.658-3.64,3.133-6.236,7.387-6.236
			c4.223,0,6.526,2.669,7.119,6.236h-3.357c-0.423-1.911-1.748-3.111-3.762-3.111c-1.957,0-3.443,1.284-3.883,3.111H14.657z"/>
	</g>
</g>
</svg>
