<svg xmlns="http://www.w3.org/2000/svg" version="1.1" x="0px" y="0px" viewBox="0 0 307 104" xml:space="preserve"><style>.s0{fill:#4D4D4E;}</style><rect x="227.807" y="13.702" width="6.335" height="44.365"/><path d="M155.935 29.887c1.759-2.03 4.347-3.501 7.165-3.501 3.662 0 6.373 1.725 8.286 4.598 1.98-2.807 5.319-4.598 8.827-4.598 8.07 0 10.059 6.405 10.059 12.95v18.731h-6.347V40.255c0-3.817-0.846-7.838-5.067-7.838 -5.249 0-5.754 5.38-5.754 9.985v15.665h-6.644v-16.77c0-3.283-0.014-8.881-4.72-8.881 -5.245 0-6.247 5.328-6.247 9.985v15.665h-6.2V27.243h6.643V29.887z"/><polygon points="108.597 13.69 114.859 13.66 114.859 58.016 108.597 58.016 "/><path d="M91.458 32.287c-3.764 0-6.624 2.524-7.472 6.051h14.706C97.891 34.65 95.337 32.287 91.458 32.287zM105.453 42.224v1.426H83.578c0.297 4.462 3.381 8.363 8.065 8.363 4.352 0 6.312-2.345 8.387-5.77l5.615 3.168c-2.926 5.403-7.836 8.644-14.06 8.644 -9.149 0-14.671-6.94-14.671-15.652 0-9.052 4.884-16.017 14.543-16.017C101.019 26.386 105.453 33.501 105.453 42.224zM132.345 32.353c-3.702 0-6.527 2.521-7.367 6.053h14.504C138.682 34.713 136.162 32.353 132.345 32.353zM146.145 42.274v1.424h-21.574c0.297 4.443 3.343 8.365 7.964 8.365 4.281 0 6.217-2.363 8.268-5.773l5.524 3.179c-2.883 5.375-7.72 8.615-13.862 8.615 -9.009 0-14.459-6.929-14.459-15.63 0-9.032 4.823-15.992 14.339-15.992C141.769 26.462 146.145 33.567 146.145 42.274zM200.725 42.157c0 5.206 3.112 9.855 8.507 9.855 5.606 0 8.767-4.427 8.767-9.855 0-5.374-3.212-9.74-8.767-9.74C203.945 32.417 200.725 37.023 200.725 42.157zM201.027 31.041c2.335-2.855 5.594-4.655 9.555-4.655 8.684 0 14.057 7.515 14.057 15.59 0 8.418-5.048 16.079-14.298 16.079 -3.745 0-7.015-1.804-9.314-4.512v17.891h-6.648v-44.19h6.648V31.041zM251.822 32.287c-3.756 0-6.622 2.524-7.467 6.051h14.71C258.255 34.65 255.692 32.287 251.822 32.287zM265.816 42.224v1.426h-21.875c0.303 4.462 3.383 8.363 8.064 8.363 4.362 0 6.309-2.345 8.387-5.77l5.623 3.168c-2.93 5.403-7.84 8.644-14.066 8.644 -9.141 0-14.676-6.94-14.676-15.652 0-9.052 4.896-16.017 14.549-16.017C261.382 26.386 265.816 33.501 265.816 42.224z"/><path d="M284.809 26.462c-8.875 0-15.856 6.859-15.856 15.812 0 8.94 6.981 15.81 15.856 15.81 8.877 0 15.879-6.869 15.879-15.81C300.688 33.321 293.685 26.462 284.809 26.462zM284.809 51.687c-5.118 0-9.237-4.331-9.237-9.413 0-5.159 4.119-9.43 9.237-9.43 5.137 0 9.244 4.27 9.244 9.43C294.053 47.356 289.938 51.687 284.809 51.687z"/><path d="M56.725 28.806v-0.87c0-1.552-0.123-3.059-0.363-4.502l8.673 0.002c3.292 0 5.967 2.67 5.967 5.962v25.639c0 3.29-2.675 5.964-5.967 5.964H14.355c-3.296 0-5.963-2.674-5.963-5.964V29.398c0-3.292 2.667-5.964 5.963-5.964h8.757c-0.268 1.507-0.403 3.08-0.403 4.716 0 10.331 6.594 18.556 17.48 18.556 7.424 0 13.273-3.841 16.766-10.237l-6.694-3.767c-2.473 4.059-4.809 6.851-9.992 6.851 -5.557 0-9.229-4.598-9.609-9.856l-0.056-0.891C33.75 28.806 56.725 28.806 56.725 28.806z" fill="#0076C0"/><path d="M23.119 23.434c1.506-8.344 7.177-14.292 16.925-14.292 9.681 0 14.96 6.117 16.317 14.292h-7.695c-0.966-4.379-4.005-7.132-8.622-7.132 -4.485 0-7.891 2.945-8.899 7.132H23.119z"/><path d="M19.25 78.577v1.208h-4.548v12.989H13.31V79.785H8.761v-1.208H19.25zM24.393 81.978c0.437 0 0.85 0.034 1.239 0.102 0.389 0.069 0.659 0.137 0.809 0.205l-0.266 1.147c-0.109-0.055-0.331-0.113-0.666-0.174 -0.334-0.062-0.775-0.092-1.321-0.092 -0.574 0-1.035 0.041-1.383 0.123s-0.577 0.15-0.686 0.205v9.281h-1.332v-10.1c0.341-0.15 0.812-0.304 1.414-0.461C22.802 82.056 23.533 81.978 24.393 81.978zM31.666 81.937c0.696 0 1.287 0.099 1.772 0.297 0.484 0.198 0.877 0.471 1.178 0.819 0.3 0.349 0.519 0.762 0.656 1.24 0.136 0.478 0.205 0.997 0.205 1.557v6.679c-0.137 0.041-0.335 0.085-0.594 0.133 -0.26 0.048-0.56 0.099-0.901 0.154 -0.342 0.054-0.721 0.099-1.137 0.133C32.427 92.982 32 93 31.563 93c-0.56 0-1.076-0.062-1.547-0.185s-0.881-0.317-1.229-0.584c-0.349-0.266-0.622-0.607-0.82-1.024 -0.198-0.417-0.297-0.925-0.297-1.526 0-0.573 0.109-1.065 0.328-1.475 0.218-0.41 0.526-0.748 0.922-1.014 0.396-0.267 0.867-0.461 1.414-0.584s1.141-0.185 1.783-0.185c0.191 0 0.392 0.01 0.604 0.031s0.417 0.048 0.615 0.082c0.198 0.034 0.369 0.068 0.512 0.103s0.242 0.065 0.297 0.092v-0.656c0-0.369-0.027-0.727-0.082-1.076 -0.055-0.348-0.174-0.662-0.359-0.942 -0.184-0.28-0.444-0.505-0.778-0.676 -0.335-0.171-0.775-0.256-1.321-0.256 -0.779 0-1.359 0.055-1.742 0.164s-0.663 0.198-0.84 0.266l-0.185-1.167c0.232-0.109 0.591-0.212 1.076-0.308C30.398 81.984 30.982 81.937 31.666 81.937zM31.788 91.811c0.519 0 0.973-0.017 1.362-0.051 0.39-0.034 0.721-0.078 0.994-0.133v-3.729c-0.15-0.068-0.389-0.14-0.717-0.215s-0.778-0.113-1.352-0.113c-0.328 0-0.669 0.024-1.024 0.072 -0.355 0.048-0.683 0.15-0.983 0.307 -0.301 0.157-0.546 0.373-0.738 0.646 -0.191 0.273-0.287 0.635-0.287 1.085 0 0.396 0.064 0.731 0.195 1.004 0.129 0.273 0.314 0.492 0.553 0.656 0.239 0.164 0.525 0.284 0.86 0.358C30.986 91.773 31.365 91.811 31.788 91.811zM40.208 82.817c0.232-0.177 0.604-0.365 1.116-0.563 0.512-0.198 1.117-0.297 1.813-0.297 0.765 0 1.444 0.137 2.039 0.41 0.594 0.273 1.096 0.655 1.506 1.147s0.72 1.076 0.932 1.752c0.211 0.676 0.317 1.417 0.317 2.223 0 0.86-0.126 1.632-0.379 2.315 -0.253 0.683-0.608 1.264-1.065 1.742s-1.004 0.843-1.639 1.096c-0.635 0.253-1.342 0.379-2.121 0.379 -0.942 0-1.721-0.061-2.335-0.184s-1.12-0.252-1.516-0.389V77.122l1.332-0.246V82.817zM40.208 91.524c0.205 0.068 0.508 0.133 0.912 0.194 0.402 0.062 0.932 0.092 1.587 0.092 1.147 0 2.069-0.372 2.766-1.117 0.697-0.744 1.045-1.813 1.045-3.206 0-0.587-0.062-1.144-0.184-1.669 -0.123-0.526-0.321-0.983-0.594-1.373 -0.273-0.389-0.632-0.7-1.076-0.932 -0.444-0.232-0.994-0.348-1.649-0.348 -0.314 0-0.615 0.031-0.901 0.092 -0.287 0.062-0.553 0.14-0.799 0.235 -0.246 0.096-0.461 0.198-0.645 0.308 -0.185 0.109-0.338 0.212-0.461 0.307V91.524zM54.037 81.937c0.696 0 1.287 0.099 1.772 0.297 0.484 0.198 0.877 0.471 1.178 0.819 0.3 0.349 0.519 0.762 0.656 1.24 0.136 0.478 0.205 0.997 0.205 1.557v6.679c-0.137 0.041-0.335 0.085-0.594 0.133 -0.26 0.048-0.56 0.099-0.901 0.154 -0.342 0.054-0.721 0.099-1.137 0.133C54.798 92.982 54.372 93 53.935 93c-0.56 0-1.076-0.062-1.547-0.185s-0.881-0.317-1.229-0.584c-0.349-0.266-0.622-0.607-0.82-1.024 -0.198-0.417-0.297-0.925-0.297-1.526 0-0.573 0.109-1.065 0.328-1.475 0.218-0.41 0.526-0.748 0.922-1.014 0.396-0.267 0.867-0.461 1.414-0.584s1.141-0.185 1.783-0.185c0.191 0 0.392 0.01 0.604 0.031s0.417 0.048 0.615 0.082c0.198 0.034 0.369 0.068 0.512 0.103s0.242 0.065 0.297 0.092v-0.656c0-0.369-0.027-0.727-0.082-1.076 -0.055-0.348-0.174-0.662-0.359-0.942 -0.184-0.28-0.444-0.505-0.778-0.676 -0.335-0.171-0.775-0.256-1.321-0.256 -0.779 0-1.359 0.055-1.742 0.164s-0.663 0.198-0.84 0.266l-0.185-1.167c0.232-0.109 0.591-0.212 1.076-0.308C52.77 81.984 53.354 81.937 54.037 81.937zM54.16 91.811c0.519 0 0.973-0.017 1.362-0.051 0.39-0.034 0.721-0.078 0.994-0.133v-3.729c-0.15-0.068-0.389-0.14-0.717-0.215s-0.778-0.113-1.352-0.113c-0.328 0-0.669 0.024-1.024 0.072 -0.355 0.048-0.683 0.15-0.983 0.307 -0.301 0.157-0.546 0.373-0.738 0.646 -0.191 0.273-0.287 0.635-0.287 1.085 0 0.396 0.064 0.731 0.195 1.004 0.129 0.273 0.314 0.492 0.553 0.656 0.239 0.164 0.525 0.284 0.86 0.358C53.357 91.773 53.736 91.811 54.16 91.811zM59.26 96.605c-0.15 0-0.338-0.021-0.563-0.062 -0.226-0.041-0.393-0.089-0.502-0.144l0.184-1.085c0.096 0.027 0.226 0.054 0.39 0.082 0.164 0.027 0.321 0.041 0.471 0.041 0.806 0 1.342-0.225 1.608-0.676 0.267-0.451 0.399-1.127 0.399-2.028V82.182h1.332v10.489c0 1.338-0.253 2.329-0.758 2.971C61.316 96.284 60.462 96.605 59.26 96.605zM62.887 78.986c0 0.314-0.096 0.563-0.287 0.748 -0.191 0.185-0.423 0.277-0.696 0.277 -0.273 0-0.505-0.092-0.697-0.277 -0.191-0.184-0.287-0.433-0.287-0.748 0-0.314 0.095-0.563 0.287-0.748 0.191-0.184 0.423-0.276 0.697-0.276 0.273 0 0.505 0.092 0.696 0.276C62.791 78.423 62.887 78.672 62.887 78.986zM75.138 87.488c0 0.833-0.12 1.591-0.358 2.274 -0.239 0.683-0.574 1.264-1.004 1.742s-0.939 0.85-1.526 1.116c-0.587 0.267-1.236 0.399-1.946 0.399 -0.71 0-1.359-0.133-1.946-0.399 -0.587-0.266-1.096-0.638-1.526-1.116s-0.765-1.059-1.004-1.742c-0.239-0.683-0.358-1.44-0.358-2.274 0-0.833 0.119-1.591 0.358-2.274 0.239-0.683 0.574-1.267 1.004-1.752 0.43-0.484 0.939-0.86 1.526-1.126 0.587-0.267 1.236-0.399 1.946-0.399 0.71 0 1.358 0.133 1.946 0.399 0.587 0.266 1.096 0.642 1.526 1.126 0.43 0.485 0.765 1.069 1.004 1.752C75.018 85.897 75.138 86.655 75.138 87.488zM73.724 87.488c0-1.325-0.307-2.38-0.922-3.165 -0.614-0.785-1.448-1.178-2.499-1.178 -1.052 0-1.885 0.393-2.5 1.178 -0.615 0.785-0.922 1.84-0.922 3.165 0 1.325 0.307 2.376 0.922 3.155 0.614 0.779 1.447 1.168 2.5 1.168 1.051 0 1.885-0.389 2.499-1.168C73.417 89.865 73.724 88.813 73.724 87.488zM80.198 91.832c0.765 0 1.396-0.126 1.895-0.379 0.499-0.252 0.748-0.679 0.748-1.281 0-0.287-0.044-0.532-0.133-0.737 -0.089-0.205-0.236-0.389-0.441-0.553 -0.205-0.164-0.475-0.321-0.809-0.471 -0.335-0.15-0.748-0.328-1.239-0.533 -0.396-0.164-0.772-0.331-1.127-0.502 -0.355-0.17-0.669-0.369-0.942-0.594 -0.273-0.226-0.492-0.495-0.656-0.81 -0.164-0.314-0.246-0.696-0.246-1.147 0-0.861 0.324-1.557 0.973-2.09 0.648-0.533 1.54-0.799 2.673-0.799 0.724 0 1.322 0.062 1.793 0.184 0.471 0.123 0.802 0.232 0.993 0.328l-0.307 1.188c-0.164-0.082-0.44-0.191-0.83-0.328 -0.389-0.136-0.96-0.205-1.711-0.205 -0.3 0-0.583 0.031-0.85 0.093 -0.266 0.062-0.502 0.157-0.707 0.287 -0.205 0.13-0.369 0.294-0.492 0.493 -0.123 0.199-0.185 0.441-0.185 0.729 0 0.288 0.055 0.534 0.164 0.739 0.109 0.206 0.27 0.387 0.481 0.544 0.211 0.157 0.471 0.304 0.778 0.439 0.307 0.136 0.659 0.286 1.055 0.449 0.41 0.163 0.802 0.33 1.178 0.5s0.707 0.375 0.994 0.613c0.287 0.239 0.519 0.526 0.697 0.86 0.177 0.335 0.266 0.755 0.266 1.26 0 0.956-0.358 1.68-1.075 2.171 -0.717 0.492-1.697 0.737-2.94 0.737 -0.929 0-1.639-0.079-2.131-0.235s-0.819-0.276-0.983-0.358l0.349-1.209c0.041 0.028 0.129 0.072 0.266 0.133 0.136 0.062 0.321 0.13 0.553 0.205 0.232 0.075 0.509 0.14 0.83 0.194C79.402 91.804 79.774 91.832 80.198 91.832zM94.354 93c-0.445-0.836-0.876-1.704-1.294-2.604s-0.809-1.812-1.172-2.733c-0.363-0.921-0.695-1.843-0.997-2.764 -0.301-0.921-0.561-1.827-0.777-2.715h1.414c0.15 0.656 0.341 1.363 0.573 2.121 0.231 0.758 0.494 1.54 0.787 2.346 0.293 0.806 0.617 1.633 0.972 2.479 0.354 0.847 0.742 1.68 1.161 2.498 0.304-0.844 0.574-1.641 0.808-2.391 0.235-0.75 0.452-1.498 0.652-2.242 0.2-0.744 0.394-1.505 0.58-2.283 0.186-0.778 0.376-1.621 0.571-2.529h1.333c-0.445 1.982-0.945 3.91-1.5 5.783 -0.555 1.873-1.161 3.585-1.817 5.137 -0.26 0.615-0.526 1.144-0.801 1.588s-0.58 0.809-0.915 1.096c-0.336 0.287-0.727 0.498-1.173 0.635s-0.971 0.205-1.574 0.205c-0.343 0-0.655-0.041-0.936-0.123 -0.281-0.082-0.456-0.144-0.524-0.184l0.266-1.106c0.055 0.041 0.209 0.099 0.462 0.174 0.253 0.075 0.517 0.112 0.791 0.112 0.383 0 0.729-0.041 1.037-0.123 0.308-0.082 0.585-0.222 0.832-0.42 0.246-0.198 0.469-0.454 0.667-0.768C93.978 93.873 94.169 93.477 94.354 93zM105.212 87.468c0-0.929 0.133-1.738 0.399-2.428 0.266-0.689 0.615-1.267 1.045-1.731s0.922-0.809 1.475-1.035c0.553-0.226 1.123-0.338 1.71-0.338 1.297 0 2.332 0.423 3.104 1.27 0.771 0.847 1.158 2.151 1.158 3.913 0 0.109-0.003 0.219-0.01 0.328 -0.007 0.109-0.017 0.212-0.031 0.308h-7.437c0.041 1.297 0.361 2.294 0.963 2.991 0.601 0.697 1.557 1.045 2.868 1.045 0.724 0 1.297-0.068 1.721-0.205 0.423-0.136 0.73-0.252 0.922-0.348l0.246 1.147c-0.191 0.109-0.55 0.239-1.076 0.389 -0.526 0.15-1.144 0.226-1.854 0.226 -0.929 0-1.721-0.137-2.376-0.41 -0.656-0.273-1.195-0.655-1.619-1.147s-0.731-1.076-0.922-1.752C105.308 89.015 105.212 88.274 105.212 87.468zM112.731 86.628c-0.027-1.106-0.287-1.967-0.778-2.582 -0.492-0.614-1.188-0.922-2.09-0.922 -0.479 0-0.905 0.096-1.28 0.287 -0.376 0.191-0.704 0.447-0.983 0.768 -0.28 0.321-0.499 0.693-0.656 1.117 -0.157 0.423-0.25 0.867-0.276 1.332H112.731zM117.074 82.551c0.396-0.109 0.912-0.232 1.547-0.369 0.635-0.136 1.458-0.205 2.469-0.205 1.338 0 2.308 0.389 2.909 1.167 0.068-0.054 0.201-0.146 0.399-0.276 0.198-0.13 0.447-0.263 0.748-0.399s0.652-0.253 1.055-0.349c0.403-0.095 0.85-0.143 1.342-0.143 0.806 0 1.458 0.12 1.957 0.358 0.499 0.239 0.884 0.574 1.158 1.004 0.273 0.43 0.458 0.946 0.553 1.547 0.095 0.601 0.143 1.256 0.143 1.966v5.921h-1.332v-5.491c0-0.696-0.031-1.301-0.092-1.813 -0.061-0.512-0.184-0.935-0.369-1.27 -0.184-0.334-0.447-0.587-0.789-0.758 -0.342-0.171-0.786-0.256-1.332-0.256 -0.41 0-0.782 0.038-1.117 0.113 -0.335 0.075-0.625 0.167-0.871 0.276 -0.246 0.109-0.448 0.219-0.604 0.328 -0.157 0.109-0.27 0.191-0.338 0.246 0.123 0.355 0.215 0.755 0.276 1.199s0.092 0.912 0.092 1.403v6.023h-1.332v-5.491c0-0.696-0.031-1.301-0.092-1.813s-0.188-0.935-0.379-1.27c-0.191-0.334-0.461-0.587-0.81-0.758 -0.348-0.171-0.809-0.256-1.383-0.256 -0.642 0-1.185 0.034-1.628 0.103 -0.444 0.068-0.728 0.13-0.85 0.184v9.301h-1.332V82.551zM136.085 96.564h-1.332V82.551c0.396-0.136 0.901-0.266 1.516-0.389s1.393-0.184 2.335-0.184c0.779 0 1.485 0.126 2.121 0.379 0.635 0.253 1.181 0.618 1.639 1.096s0.812 1.059 1.065 1.741c0.252 0.683 0.379 1.455 0.379 2.315 0 0.806-0.106 1.547-0.317 2.223 -0.212 0.676-0.522 1.257-0.932 1.742s-0.912 0.864-1.506 1.137c-0.594 0.273-1.273 0.41-2.039 0.41 -0.696 0-1.301-0.099-1.813-0.297s-0.884-0.386-1.116-0.563V96.564zM136.085 90.869c0.123 0.096 0.276 0.198 0.461 0.307 0.184 0.11 0.399 0.212 0.645 0.308 0.246 0.096 0.512 0.174 0.799 0.235 0.287 0.062 0.587 0.092 0.901 0.092 0.655 0 1.205-0.113 1.649-0.338 0.444-0.226 0.802-0.533 1.076-0.922 0.273-0.39 0.471-0.847 0.594-1.373 0.123-0.526 0.184-1.083 0.184-1.67 0-1.393-0.348-2.461-1.045-3.206 -0.696-0.744-1.618-1.117-2.766-1.117 -0.655 0-1.185 0.031-1.587 0.092 -0.403 0.062-0.707 0.126-0.912 0.194V90.869zM149.381 92.958c-0.451-0.014-0.844-0.072-1.178-0.174 -0.335-0.103-0.615-0.259-0.84-0.471 -0.226-0.211-0.396-0.485-0.512-0.819 -0.116-0.334-0.174-0.755-0.174-1.26V77.122l1.332-0.246v13.316c0 0.328 0.031 0.591 0.092 0.789 0.062 0.198 0.154 0.355 0.277 0.471s0.283 0.202 0.481 0.256c0.198 0.055 0.433 0.103 0.707 0.144L149.381 92.958zM151.286 87.468c0-0.929 0.133-1.738 0.399-2.428 0.267-0.689 0.614-1.267 1.045-1.731 0.43-0.464 0.922-0.809 1.475-1.035 0.554-0.226 1.123-0.338 1.711-0.338 1.298 0 2.332 0.423 3.104 1.27 0.771 0.847 1.158 2.151 1.158 3.913 0 0.109-0.004 0.219-0.011 0.328 -0.007 0.109-0.018 0.212-0.03 0.308h-7.438c0.041 1.297 0.362 2.294 0.963 2.991 0.602 0.697 1.558 1.045 2.868 1.045 0.724 0 1.298-0.068 1.722-0.205 0.423-0.136 0.73-0.252 0.922-0.348l0.245 1.147c-0.191 0.109-0.55 0.239-1.075 0.389 -0.526 0.15-1.145 0.226-1.854 0.226 -0.929 0-1.721-0.137-2.376-0.41 -0.655-0.273-1.195-0.655-1.618-1.147 -0.424-0.492-0.731-1.076-0.922-1.752C151.382 89.015 151.286 88.274 151.286 87.468zM158.805 86.628c-0.027-1.106-0.287-1.967-0.778-2.582 -0.492-0.614-1.188-0.922-2.09-0.922 -0.479 0-0.905 0.096-1.28 0.287 -0.376 0.191-0.704 0.447-0.983 0.768 -0.28 0.321-0.499 0.693-0.655 1.117 -0.157 0.423-0.25 0.867-0.277 1.332H158.805zM172.183 87.488c0 0.833-0.12 1.591-0.358 2.274 -0.239 0.683-0.574 1.264-1.004 1.742 -0.431 0.478-0.939 0.85-1.526 1.116 -0.588 0.267-1.236 0.399-1.946 0.399 -0.711 0-1.359-0.133-1.946-0.399 -0.588-0.266-1.097-0.638-1.526-1.116 -0.431-0.478-0.766-1.059-1.004-1.742 -0.239-0.683-0.358-1.44-0.358-2.274 0-0.833 0.119-1.591 0.358-2.274 0.238-0.683 0.573-1.267 1.004-1.752 0.43-0.484 0.938-0.86 1.526-1.126 0.587-0.267 1.235-0.399 1.946-0.399 0.71 0 1.358 0.133 1.946 0.399 0.587 0.266 1.096 0.642 1.526 1.126 0.43 0.485 0.765 1.069 1.004 1.752C172.062 85.897 172.183 86.655 172.183 87.488zM170.769 87.488c0-1.325-0.308-2.38-0.922-3.165s-1.447-1.178-2.499-1.178 -1.885 0.393-2.5 1.178c-0.614 0.785-0.922 1.84-0.922 3.165 0 1.325 0.308 2.376 0.922 3.155 0.615 0.779 1.448 1.168 2.5 1.168s1.885-0.389 2.499-1.168C170.461 89.865 170.769 88.813 170.769 87.488zM177.243 91.832c0.765 0 1.396-0.126 1.895-0.379 0.499-0.252 0.748-0.679 0.748-1.281 0-0.287-0.044-0.532-0.133-0.737s-0.235-0.389-0.44-0.553 -0.475-0.321-0.81-0.471c-0.335-0.15-0.748-0.328-1.239-0.533 -0.396-0.164-0.771-0.331-1.127-0.502 -0.355-0.17-0.669-0.369-0.942-0.594 -0.273-0.226-0.491-0.495-0.655-0.81 -0.164-0.314-0.246-0.696-0.246-1.147 0-0.861 0.324-1.557 0.973-2.09 0.649-0.533 1.54-0.799 2.674-0.799 0.724 0 1.321 0.062 1.793 0.184 0.471 0.123 0.802 0.232 0.993 0.328l-0.307 1.188c-0.164-0.082-0.44-0.191-0.83-0.328 -0.39-0.136-0.96-0.205-1.711-0.205 -0.301 0-0.584 0.031-0.85 0.093 -0.267 0.062-0.502 0.157-0.707 0.287 -0.205 0.13-0.369 0.294-0.492 0.493 -0.123 0.199-0.184 0.441-0.184 0.729 0 0.288 0.054 0.534 0.163 0.739 0.109 0.206 0.27 0.387 0.481 0.544 0.212 0.157 0.472 0.304 0.779 0.439 0.307 0.136 0.658 0.286 1.055 0.449 0.41 0.163 0.802 0.33 1.178 0.5s0.707 0.375 0.994 0.613c0.286 0.239 0.519 0.526 0.696 0.86 0.178 0.335 0.267 0.755 0.267 1.26 0 0.956-0.358 1.68-1.076 2.171 -0.717 0.492-1.697 0.737-2.939 0.737 -0.929 0-1.639-0.079-2.131-0.235 -0.491-0.157-0.819-0.276-0.983-0.358l0.349-1.209c0.041 0.028 0.13 0.072 0.266 0.133 0.137 0.062 0.321 0.13 0.554 0.205s0.509 0.14 0.83 0.194C176.447 91.804 176.819 91.832 177.243 91.832zM187.875 87.468c0-0.929 0.133-1.738 0.399-2.428 0.267-0.689 0.614-1.267 1.045-1.731 0.43-0.464 0.922-0.809 1.475-1.035 0.554-0.226 1.123-0.338 1.711-0.338 1.298 0 2.332 0.423 3.104 1.27 0.771 0.847 1.158 2.151 1.158 3.913 0 0.109-0.004 0.219-0.011 0.328 -0.007 0.109-0.018 0.212-0.03 0.308h-7.438c0.041 1.297 0.362 2.294 0.963 2.991 0.602 0.697 1.558 1.045 2.868 1.045 0.724 0 1.298-0.068 1.722-0.205 0.423-0.136 0.73-0.252 0.922-0.348l0.245 1.147c-0.191 0.109-0.55 0.239-1.075 0.389 -0.526 0.15-1.145 0.226-1.854 0.226 -0.929 0-1.721-0.137-2.376-0.41 -0.655-0.273-1.195-0.655-1.618-1.147 -0.424-0.492-0.731-1.076-0.922-1.752C187.971 89.015 187.875 88.274 187.875 87.468zM195.394 86.628c-0.027-1.106-0.287-1.967-0.778-2.582 -0.492-0.614-1.188-0.922-2.09-0.922 -0.479 0-0.905 0.096-1.28 0.287 -0.376 0.191-0.704 0.447-0.983 0.768 -0.28 0.321-0.499 0.693-0.655 1.117 -0.157 0.423-0.25 0.867-0.277 1.332H195.394zM199.736 82.551c0.396-0.109 0.929-0.232 1.598-0.369 0.67-0.136 1.489-0.205 2.459-0.205 0.806 0 1.479 0.116 2.018 0.348 0.54 0.232 0.97 0.563 1.291 0.994 0.32 0.43 0.55 0.946 0.687 1.547 0.136 0.601 0.205 1.263 0.205 1.987v5.921h-1.332v-5.491c0-0.75-0.052-1.386-0.153-1.905 -0.103-0.519-0.273-0.942-0.513-1.27s-0.553-0.563-0.942-0.707c-0.39-0.144-0.878-0.215-1.465-0.215 -0.628 0-1.171 0.034-1.629 0.103 -0.457 0.068-0.755 0.13-0.891 0.184v9.301h-1.332V82.551zM222.047 93.081c-0.915 0-1.766-0.164-2.551-0.492 -0.785-0.328-1.469-0.806-2.049-1.434 -0.58-0.628-1.038-1.403-1.372-2.325 -0.335-0.922-0.502-1.977-0.502-3.165 0-1.188 0.181-2.243 0.543-3.165 0.361-0.922 0.843-1.697 1.444-2.326 0.601-0.628 1.297-1.103 2.089-1.424 0.792-0.321 1.619-0.481 2.479-0.481 0.532 0 1.018 0.035 1.454 0.103 0.438 0.068 0.819 0.154 1.147 0.256 0.328 0.102 0.607 0.205 0.84 0.307s0.41 0.195 0.533 0.276l-0.451 1.209c-0.342-0.205-0.775-0.406-1.301-0.604 -0.526-0.198-1.178-0.297-1.956-0.297 -0.889 0-1.663 0.15-2.326 0.451 -0.662 0.3-1.219 0.724-1.669 1.27 -0.451 0.546-0.789 1.195-1.015 1.946 -0.225 0.751-0.338 1.584-0.338 2.5 0 0.942 0.113 1.792 0.338 2.551 0.226 0.758 0.557 1.403 0.994 1.936 0.437 0.533 0.973 0.942 1.608 1.229 0.635 0.287 1.362 0.43 2.182 0.43 0.901 0 1.655-0.085 2.264-0.256 0.607-0.171 1.068-0.345 1.383-0.522l0.39 1.188c-0.096 0.068-0.26 0.147-0.492 0.236s-0.526 0.181-0.881 0.276c-0.355 0.095-0.765 0.174-1.229 0.236C223.14 93.05 222.62 93.081 222.047 93.081zM237.576 87.488c0 0.833-0.12 1.591-0.358 2.274 -0.239 0.683-0.574 1.264-1.004 1.742 -0.431 0.478-0.939 0.85-1.526 1.116 -0.588 0.267-1.236 0.399-1.946 0.399 -0.711 0-1.359-0.133-1.946-0.399 -0.588-0.266-1.097-0.638-1.526-1.116 -0.431-0.478-0.766-1.059-1.004-1.742 -0.239-0.683-0.358-1.44-0.358-2.274 0-0.833 0.119-1.591 0.358-2.274 0.238-0.683 0.573-1.267 1.004-1.752 0.43-0.484 0.938-0.86 1.526-1.126 0.587-0.267 1.235-0.399 1.946-0.399 0.71 0 1.358 0.133 1.946 0.399 0.587 0.266 1.096 0.642 1.526 1.126 0.43 0.485 0.765 1.069 1.004 1.752C237.456 85.897 237.576 86.655 237.576 87.488zM236.162 87.488c0-1.325-0.308-2.38-0.922-3.165s-1.447-1.178-2.499-1.178 -1.885 0.393-2.5 1.178c-0.614 0.785-0.922 1.84-0.922 3.165 0 1.325 0.308 2.376 0.922 3.155 0.615 0.779 1.448 1.168 2.5 1.168s1.885-0.389 2.499-1.168C235.854 89.865 236.162 88.813 236.162 87.488zM243.147 92.958c-0.45-0.014-0.843-0.072-1.178-0.174s-0.614-0.259-0.84-0.471c-0.226-0.211-0.396-0.485-0.513-0.819 -0.115-0.334-0.174-0.755-0.174-1.26V77.122l1.332-0.246v13.316c0 0.328 0.03 0.591 0.092 0.789 0.062 0.198 0.154 0.355 0.276 0.471 0.123 0.116 0.283 0.202 0.481 0.256 0.198 0.055 0.434 0.103 0.707 0.144L243.147 92.958zM254.723 87.488c0 0.833-0.12 1.591-0.358 2.274 -0.239 0.683-0.574 1.264-1.004 1.742 -0.431 0.478-0.939 0.85-1.526 1.116 -0.588 0.267-1.236 0.399-1.946 0.399 -0.711 0-1.359-0.133-1.946-0.399 -0.588-0.266-1.097-0.638-1.526-1.116 -0.431-0.478-0.766-1.059-1.004-1.742 -0.239-0.683-0.358-1.44-0.358-2.274 0-0.833 0.119-1.591 0.358-2.274 0.238-0.683 0.573-1.267 1.004-1.752 0.43-0.484 0.938-0.86 1.526-1.126 0.587-0.267 1.235-0.399 1.946-0.399 0.71 0 1.358 0.133 1.946 0.399 0.587 0.266 1.096 0.642 1.526 1.126 0.43 0.485 0.765 1.069 1.004 1.752C254.603 85.897 254.723 86.655 254.723 87.488zM253.309 87.488c0-1.325-0.308-2.38-0.922-3.165s-1.447-1.178-2.499-1.178 -1.885 0.393-2.5 1.178c-0.614 0.785-0.922 1.84-0.922 3.165 0 1.325 0.308 2.376 0.922 3.155 0.615 0.779 1.448 1.168 2.5 1.168s1.885-0.389 2.499-1.168C253.001 89.865 253.309 88.813 253.309 87.488zM257.61 82.551c0.396-0.109 0.912-0.232 1.547-0.369 0.635-0.136 1.458-0.205 2.469-0.205 1.338 0 2.308 0.389 2.909 1.167 0.068-0.054 0.201-0.146 0.399-0.276s0.447-0.263 0.748-0.399c0.3-0.137 0.651-0.253 1.055-0.349 0.402-0.095 0.851-0.143 1.342-0.143 0.806 0 1.458 0.12 1.957 0.358 0.498 0.239 0.884 0.574 1.157 1.004s0.457 0.946 0.553 1.547 0.144 1.256 0.144 1.966v5.921h-1.331v-5.491c0-0.696-0.031-1.301-0.093-1.813s-0.185-0.935-0.368-1.27c-0.185-0.334-0.448-0.587-0.789-0.758 -0.342-0.171-0.785-0.256-1.332-0.256 -0.409 0-0.781 0.038-1.116 0.113s-0.625 0.167-0.871 0.276c-0.245 0.109-0.447 0.219-0.604 0.328 -0.157 0.109-0.271 0.191-0.339 0.246 0.123 0.355 0.216 0.755 0.277 1.199s0.092 0.912 0.092 1.403v6.023h-1.332v-5.491c0-0.696-0.03-1.301-0.092-1.813s-0.188-0.935-0.379-1.27c-0.191-0.334-0.461-0.587-0.81-0.758 -0.348-0.171-0.809-0.256-1.383-0.256 -0.642 0-1.185 0.034-1.629 0.103 -0.443 0.068-0.727 0.13-0.85 0.184v9.301h-1.332V82.551zM276.623 82.817c0.231-0.177 0.604-0.365 1.116-0.563 0.513-0.198 1.116-0.297 1.813-0.297 0.765 0 1.444 0.137 2.038 0.41 0.594 0.273 1.096 0.655 1.506 1.147s0.721 1.076 0.933 1.752c0.211 0.676 0.317 1.417 0.317 2.223 0 0.86-0.127 1.632-0.379 2.315 -0.253 0.683-0.608 1.264-1.065 1.742 -0.458 0.478-1.004 0.843-1.64 1.096 -0.635 0.253-1.342 0.379-2.12 0.379 -0.942 0-1.721-0.061-2.335-0.184 -0.615-0.123-1.12-0.252-1.517-0.389V77.122l1.332-0.246V82.817zM276.623 91.524c0.205 0.068 0.509 0.133 0.911 0.194 0.403 0.062 0.933 0.092 1.588 0.092 1.147 0 2.069-0.372 2.766-1.117 0.697-0.744 1.045-1.813 1.045-3.206 0-0.587-0.062-1.144-0.185-1.669s-0.32-0.983-0.594-1.373c-0.273-0.389-0.632-0.7-1.075-0.932 -0.444-0.232-0.994-0.348-1.649-0.348 -0.314 0-0.615 0.031-0.901 0.092 -0.287 0.062-0.554 0.14-0.799 0.235 -0.246 0.096-0.461 0.198-0.646 0.308s-0.338 0.212-0.461 0.307V91.524zM288.873 78.986c0 0.314-0.096 0.563-0.286 0.748 -0.191 0.185-0.424 0.277-0.697 0.277 -0.272 0-0.505-0.092-0.696-0.277 -0.191-0.184-0.287-0.433-0.287-0.748 0-0.314 0.096-0.563 0.287-0.748 0.191-0.184 0.424-0.276 0.696-0.276 0.273 0 0.506 0.092 0.697 0.276C288.777 78.423 288.873 78.672 288.873 78.986zM288.566 92.774h-1.332V82.182h1.332V92.774zM295.307 81.937c0.696 0 1.287 0.099 1.771 0.297 0.485 0.198 0.878 0.471 1.179 0.819 0.3 0.349 0.519 0.762 0.655 1.24s0.205 0.997 0.205 1.557v6.679c-0.137 0.041-0.335 0.085-0.595 0.133 -0.259 0.048-0.56 0.099-0.901 0.154 -0.341 0.054-0.72 0.099-1.137 0.133 -0.417 0.034-0.844 0.051-1.28 0.051 -0.561 0-1.075-0.062-1.547-0.185 -0.471-0.123-0.881-0.317-1.229-0.584 -0.348-0.266-0.621-0.607-0.819-1.024 -0.198-0.417-0.297-0.925-0.297-1.526 0-0.573 0.109-1.065 0.328-1.475 0.218-0.41 0.525-0.748 0.922-1.014 0.396-0.267 0.867-0.461 1.413-0.584s1.141-0.185 1.782-0.185c0.191 0 0.393 0.01 0.604 0.031s0.417 0.048 0.615 0.082c0.197 0.034 0.368 0.068 0.512 0.103s0.242 0.065 0.297 0.092v-0.656c0-0.369-0.027-0.727-0.082-1.076 -0.055-0.348-0.174-0.662-0.358-0.942 -0.185-0.28-0.443-0.505-0.778-0.676s-0.775-0.256-1.321-0.256c-0.778 0-1.359 0.055-1.741 0.164 -0.383 0.109-0.663 0.198-0.84 0.266l-0.185-1.167c0.231-0.109 0.591-0.212 1.075-0.308C294.039 81.984 294.623 81.937 295.307 81.937zM295.43 91.811c0.519 0 0.973-0.017 1.362-0.051 0.389-0.034 0.72-0.078 0.993-0.133v-3.729c-0.15-0.068-0.389-0.14-0.717-0.215s-0.778-0.113-1.353-0.113c-0.327 0-0.669 0.024-1.024 0.072 -0.354 0.048-0.683 0.15-0.983 0.307 -0.3 0.157-0.546 0.373-0.737 0.646 -0.191 0.273-0.286 0.635-0.286 1.085 0 0.396 0.064 0.731 0.194 1.004 0.13 0.273 0.313 0.492 0.553 0.656s0.525 0.284 0.86 0.358C294.627 91.773 295.006 91.811 295.43 91.811z" fill="#4D4D4E"/></svg>